<mxfile host="app.diagrams.net" agent="Mozilla/5.0 (Windows NT 10.0; Win64; x64) AppleWebKit/537.36 (KHTML, like Gecko) Chrome/132.0.0.0 Safari/537.36" version="26.0.14">
  <diagram name="Page-1" id="HbfF9Ny-SufwKLvFidoZ">
    <mxGraphModel dx="1050" dy="522" grid="1" gridSize="10" guides="1" tooltips="1" connect="1" arrows="1" fold="1" page="1" pageScale="1" pageWidth="827" pageHeight="1169" math="0" shadow="0">
      <root>
        <mxCell id="0" />
        <mxCell id="1" parent="0" />
        <mxCell id="ELGaAtKziZU5tPOgLBXE-2" value="&lt;b&gt;&lt;font face=&quot;Verdana&quot;&gt;Conceptual ER Diagram - DVD Rental - By Mateus Veloso in drawio.com&lt;/font&gt;&lt;/b&gt;" style="text;html=1;align=center;verticalAlign=middle;whiteSpace=wrap;rounded=0;" vertex="1" parent="1">
          <mxGeometry x="75" y="30" width="690" height="30" as="geometry" />
        </mxCell>
        <mxCell id="ELGaAtKziZU5tPOgLBXE-3" value="&lt;font style=&quot;font-size: 20px;&quot;&gt;Branch&lt;/font&gt;" style="ellipse;whiteSpace=wrap;html=1;" vertex="1" parent="1">
          <mxGeometry x="300" y="370" width="120" height="80" as="geometry" />
        </mxCell>
        <mxCell id="ELGaAtKziZU5tPOgLBXE-10" style="rounded=0;orthogonalLoop=1;jettySize=auto;html=1;exitX=1;exitY=1;exitDx=0;exitDy=0;entryX=0.5;entryY=0;entryDx=0;entryDy=0;startArrow=none;startFill=0;strokeColor=none;" edge="1" parent="1" source="ELGaAtKziZU5tPOgLBXE-4">
          <mxGeometry relative="1" as="geometry">
            <mxPoint x="280" y="210" as="targetPoint" />
          </mxGeometry>
        </mxCell>
        <mxCell id="ELGaAtKziZU5tPOgLBXE-15" style="rounded=0;orthogonalLoop=1;jettySize=auto;html=1;exitX=1;exitY=1;exitDx=0;exitDy=0;" edge="1" parent="1" source="ELGaAtKziZU5tPOgLBXE-4" target="ELGaAtKziZU5tPOgLBXE-3">
          <mxGeometry relative="1" as="geometry" />
        </mxCell>
        <mxCell id="ELGaAtKziZU5tPOgLBXE-4" value="&lt;font style=&quot;font-size: 20px;&quot;&gt;Staff&lt;/font&gt;" style="ellipse;whiteSpace=wrap;html=1;" vertex="1" parent="1">
          <mxGeometry x="110" y="70" width="120" height="80" as="geometry" />
        </mxCell>
        <mxCell id="ELGaAtKziZU5tPOgLBXE-5" value="&lt;font style=&quot;font-size: 20px;&quot;&gt;Manager&lt;/font&gt;" style="ellipse;whiteSpace=wrap;html=1;" vertex="1" parent="1">
          <mxGeometry x="10" y="250" width="120" height="80" as="geometry" />
        </mxCell>
        <mxCell id="ELGaAtKziZU5tPOgLBXE-25" style="rounded=0;orthogonalLoop=1;jettySize=auto;html=1;exitX=0;exitY=0.5;exitDx=0;exitDy=0;entryX=1;entryY=1;entryDx=0;entryDy=0;" edge="1" parent="1" source="ELGaAtKziZU5tPOgLBXE-6" target="ELGaAtKziZU5tPOgLBXE-3">
          <mxGeometry relative="1" as="geometry" />
        </mxCell>
        <mxCell id="ELGaAtKziZU5tPOgLBXE-6" value="&lt;font style=&quot;font-size: 20px;&quot;&gt;DVD&lt;/font&gt;" style="ellipse;whiteSpace=wrap;html=1;" vertex="1" parent="1">
          <mxGeometry x="620" y="440" width="120" height="80" as="geometry" />
        </mxCell>
        <mxCell id="ELGaAtKziZU5tPOgLBXE-7" value="&lt;font style=&quot;font-size: 20px;&quot;&gt;Member&lt;/font&gt;" style="ellipse;whiteSpace=wrap;html=1;" vertex="1" parent="1">
          <mxGeometry x="490" y="160" width="120" height="80" as="geometry" />
        </mxCell>
        <mxCell id="ELGaAtKziZU5tPOgLBXE-19" style="rounded=0;orthogonalLoop=1;jettySize=auto;html=1;exitX=0;exitY=0.5;exitDx=0;exitDy=0;entryX=1;entryY=0.5;entryDx=0;entryDy=0;" edge="1" parent="1" source="ELGaAtKziZU5tPOgLBXE-8" target="ELGaAtKziZU5tPOgLBXE-7">
          <mxGeometry relative="1" as="geometry" />
        </mxCell>
        <mxCell id="ELGaAtKziZU5tPOgLBXE-8" value="&lt;font style=&quot;font-size: 20px;&quot;&gt;Rental&lt;/font&gt;" style="ellipse;whiteSpace=wrap;html=1;" vertex="1" parent="1">
          <mxGeometry x="780" y="70" width="120" height="80" as="geometry" />
        </mxCell>
        <mxCell id="ELGaAtKziZU5tPOgLBXE-16" value="Works at" style="rhombus;whiteSpace=wrap;html=1;" vertex="1" parent="1">
          <mxGeometry x="180" y="220" width="170" height="40" as="geometry" />
        </mxCell>
        <mxCell id="ELGaAtKziZU5tPOgLBXE-20" value="Belongs to" style="rhombus;whiteSpace=wrap;html=1;" vertex="1" parent="1">
          <mxGeometry x="650" y="140" width="100" height="30" as="geometry" />
        </mxCell>
        <mxCell id="ELGaAtKziZU5tPOgLBXE-22" style="rounded=0;orthogonalLoop=1;jettySize=auto;html=1;exitX=0;exitY=1;exitDx=0;exitDy=0;entryX=0.99;entryY=0.3;entryDx=0;entryDy=0;entryPerimeter=0;" edge="1" parent="1" source="ELGaAtKziZU5tPOgLBXE-7" target="ELGaAtKziZU5tPOgLBXE-3">
          <mxGeometry relative="1" as="geometry" />
        </mxCell>
        <mxCell id="ELGaAtKziZU5tPOgLBXE-23" value="Register at" style="rhombus;whiteSpace=wrap;html=1;" vertex="1" parent="1">
          <mxGeometry x="410" y="280" width="120" height="40" as="geometry" />
        </mxCell>
        <mxCell id="ELGaAtKziZU5tPOgLBXE-26" value="Belongs to" style="rhombus;whiteSpace=wrap;html=1;" vertex="1" parent="1">
          <mxGeometry x="460" y="440" width="120" height="40" as="geometry" />
        </mxCell>
        <mxCell id="ELGaAtKziZU5tPOgLBXE-27" style="rounded=0;orthogonalLoop=1;jettySize=auto;html=1;exitX=1;exitY=1;exitDx=0;exitDy=0;entryX=0;entryY=0.375;entryDx=0;entryDy=0;entryPerimeter=0;" edge="1" parent="1" source="ELGaAtKziZU5tPOgLBXE-5" target="ELGaAtKziZU5tPOgLBXE-3">
          <mxGeometry relative="1" as="geometry" />
        </mxCell>
        <mxCell id="ELGaAtKziZU5tPOgLBXE-28" value="Manages" style="rhombus;whiteSpace=wrap;html=1;" vertex="1" parent="1">
          <mxGeometry x="140" y="340" width="120" height="40" as="geometry" />
        </mxCell>
      </root>
    </mxGraphModel>
  </diagram>
</mxfile>
